<?xml version="1.0" standalone="no"?>
<!DOCTYPE svg PUBLIC "-//W3C//DTD SVG 1.1//EN" "http://www.w3.org/Graphics/SVG/1.1/DTD/svg11.dtd" >
<svg xmlns="http://www.w3.org/2000/svg">
<metadata>Generated by IcoMoon</metadata>
<defs>
<font id="Lotto-icons" horiz-adv-x="1024">
<font-face units-per-em="1024" ascent="960" descent="-64" />
<missing-glyph horiz-adv-x="1024" />
<glyph unicode="&#x20;" horiz-adv-x="512" d="" />
<glyph unicode="&#xe900;" glyph-name="checked" horiz-adv-x="1044" d="M6.461 808.845c0 90.55 73.233 163.955 163.955 163.955h696.089c90.55 0 163.955-73.233 163.955-163.955v-696.089c0-90.55-73.233-163.955-163.955-163.955h-696.089c-90.55 0-163.955 73.233-163.955 163.955v696.089zM853.293 616.801c0 10.857-4.343 21.714-12.16 29.531l-59.063 59.063c-7.817 7.817-18.674 12.16-29.531 12.16s-21.714-4.343-29.531-12.16l-284.892-285.326-127.68 128.114c-7.817 7.817-18.674 12.16-29.531 12.16s-21.714-4.343-29.531-12.16l-59.063-59.063c-7.817-7.817-12.16-18.674-12.16-29.531s4.343-21.714 12.16-29.531l216.275-216.275c7.817-7.817 18.674-12.16 29.531-12.16s21.714 4.343 29.531 12.16l373.486 373.486c7.817 7.817 12.16 18.674 12.16 29.531z" />
<glyph unicode="&#xe901;" glyph-name="check" horiz-adv-x="1043" d="M89.745 783.064v-644.527c0-62.995 50.926-113.885 113.885-113.885h644.527c62.995 0 113.885 50.926 113.885 113.885v644.527c0 62.995-50.926 113.885-113.885 113.885h-644.527c-62.995 0-113.885-50.926-113.885-113.885zM13.893 783.064c0 104.838 84.837 189.736 189.736 189.736h644.527c104.838 0 189.736-84.837 189.736-189.736v-644.527c0-104.838-84.837-189.736-189.736-189.736h-644.527c-104.838 0-189.736 84.837-189.736 189.736v644.527z" />
<glyph unicode="&#xe902;" glyph-name="Info" horiz-adv-x="1044" d="M471.533 501.76h81.92v-286.72h-81.92v286.72zM471.533 706.56h81.92v-81.92h-81.92v81.92zM512.493-51.2c-282.77 0-512 229.23-512 512s229.23 512 512 512c282.77 0 512-229.23 512-512s-229.23-512-512-512zM512.493-10.24c260.148 0 471.040 210.892 471.040 471.040s-210.892 471.040-471.040 471.040c-260.148 0-471.040-210.892-471.040-471.040s210.892-471.040 471.040-471.040z" />
<glyph unicode="&#xe903;" glyph-name="icona_modifica_schedina" d="M270.634 48.421l59.429 59.429-153.47 153.47-59.429-59.429v-69.878h83.592v-83.592h69.878zM612.186 654.462c0 8.49-5.878 14.367-14.367 14.367-3.918 0-7.837-1.306-11.102-4.571l-353.96-353.96c-3.265-3.265-4.571-7.184-4.571-11.102 0-8.49 5.878-14.367 14.367-14.367 3.918 0 7.837 1.306 11.102 4.571l353.96 353.96c3.265 3.265 4.571 7.184 4.571 11.102zM576.92 779.85l271.674-271.674-543.348-543.348h-271.674v271.674l543.348 543.348zM1022.962 717.156c0-22.204-9.143-43.755-24.163-58.776l-108.408-108.408-271.674 271.674 108.408 107.755c15.020 15.673 36.571 24.816 58.776 24.816s43.755-9.143 59.429-24.816l153.47-152.817c15.020-15.673 24.163-37.225 24.163-59.429z" />
<glyph unicode="&#xe904;" glyph-name="aggiorna" d="M990.225 364.462c0 10.88-8.96 20.48-20.48 20.48h-122.88c-9.6 0-16-5.76-19.2-14.72-10.88-25.6-18.56-49.92-33.92-74.88-59.52-97.28-165.12-156.16-279.040-156.16-82.56 0-162.56 32-222.72 88.32l87.68 87.68c7.68 7.68 12.16 17.92 12.16 28.8 0 22.4-18.56 40.96-40.96 40.96h-286.72c-22.4 0-40.96-18.56-40.96-40.96v-286.72c0-22.4 18.56-40.96 40.96-40.96 10.88 0 21.12 4.48 28.8 12.16l82.56 82.56c90.88-86.4 211.84-135.68 336.64-135.68 236.16 0 423.041 158.080 477.441 384.64 0.64 1.28 0.64 3.2 0.64 4.48zM1006.225 876.463c0 22.4-18.56 40.96-40.96 40.96-10.88 0-21.12-4.48-28.8-12.16l-83.2-82.56c-90.88 85.76-213.12 135.68-338.56 135.68-236.16 0-424.961-157.44-480.001-384.64v-4.48c0-10.88 8.96-20.48 20.48-20.48h127.36c9.6 0 16 5.76 19.2 14.72 10.88 25.6 18.56 49.92 33.92 74.88 59.52 97.28 165.12 156.16 279.040 156.16 82.56 0 162.56-31.36 223.36-87.68l-88.32-88.32c-7.68-7.68-12.16-17.92-12.16-28.8 0-22.4 18.56-40.96 40.96-40.96h286.72c22.4 0 40.96 18.56 40.96 40.96v286.72z" />
<glyph unicode="&#xe905;" glyph-name="burger-menu" horiz-adv-x="956" d="M40.96 972.8h873.813c22.622 0 40.96-18.338 40.96-40.96v-27.307c0-22.622-18.338-40.96-40.96-40.96h-873.813c-22.622 0-40.96 18.338-40.96 40.96v27.307c0 22.622 18.338 40.96 40.96 40.96zM40.96 727.040h873.813c22.622 0 40.96-18.338 40.96-40.96v-27.307c0-22.622-18.338-40.96-40.96-40.96h-873.813c-22.622 0-40.96 18.338-40.96 40.96v27.307c0 22.622 18.338 40.96 40.96 40.96zM40.96 481.28h873.813c22.622 0 40.96-18.338 40.96-40.96v-27.307c0-22.622-18.338-40.96-40.96-40.96h-873.813c-22.622 0-40.96 18.338-40.96 40.96v27.307c0 22.622 18.338 40.96 40.96 40.96zM14.022-43.24h32.768v102.4c0 6.281 0 15.565-0.273 22.665h0.546c3.682-6.454 7.787-12.657 12.288-18.569l39.322-56.538h15.019l35.499 55.173c4.453 6.512 8.555 13.257 12.288 20.207h0.546c-0.546-7.1-0.546-16.384-0.546-23.757v-101.608h33.055v180.019h-30.037l-43.145-66.901c-6.294-9.557-10.923-17.476-14.759-24.303h-0.546c-4.096 7.1-8.738 13.926-15.019 23.211l-47.254 68.007h-29.764v-180.006h0.014zM309.207-43.24h99.669v26.761h-66.901v51.623h57.631v26.761h-57.631v48.073h57.904l8.738 26.761h-99.41v-179.978zM517.284-43.24h32.768v102.154c0 10.103 0 20.48-0.546 27.853h0.546c6.007-8.465 12.288-17.476 20.221-27.58l79.476-102.4h30.037v179.965h-33.041v-95.874c0-9.83 0-20.753 0.546-30.324h-0.546c-5.461 8.192-12.015 17.203-20.207 27.866l-76.759 98.304h-32.495v-179.965zM867.369-45.971c33.041 0 56.538 11.469 67.734 34.693 4.933 11.072 7.268 23.126 6.827 35.239v112.79h-32.768v-110.346c0.285-8.463-1.403-16.877-4.929-24.576-8.019-12.606-21.924-20.24-36.864-20.24s-28.845 7.634-36.864 20.24c-3.49 7.614-5.173 15.931-4.915 24.303v110.592h-32.768v-112.831c-0.415-12.023 1.92-23.982 6.827-34.966 10.909-23.429 34.393-34.898 67.721-34.898z" />
<glyph unicode="&#xe906;" glyph-name="icon_chevron_bottom" horiz-adv-x="982" d="M463.472 156.648c15.238-15.238 39.619-15.238 54.857 0l452.267 452.267c15.238 15.238 15.238 39.619 0 54.857l-101.181 101.181c-15.238 15.238-39.619 15.238-54.857 0l-323.658-323.658-323.658 323.658c-15.238 15.238-39.619 15.238-54.857 0l-101.181-101.181c-15.238-15.238-15.238-39.619 0-54.857l452.267-452.267z" />
<glyph unicode="&#xe907;" glyph-name="icona_bar_code" horiz-adv-x="1313" d="M19.76 972.8h169.895v-1024h-169.895v1024zM257.595 972.8h67.962v-1024h-67.962v1024zM461.46 972.8h203.865v-1024h-203.865v1024zM1107.026 972.8h203.865v-1024h-203.865v1024zM869.191 972.8h67.962v-1024h-67.962v1024zM733.288 972.8h67.94v-1024h-67.94v1024z" />
<glyph unicode="&#xe908;" glyph-name="icon_chevron_right" horiz-adv-x="649" d="M620.147 421.747c15.238 15.238 15.238 39.619 0 54.857l-452.267 452.267c-15.238 15.238-39.619 15.238-54.857 0l-101.181-101.181c-15.238-15.238-15.238-39.619 0-54.857l323.658-323.658-323.658-323.658c-15.238-15.238-15.238-39.619 0-54.857l101.181-101.181c15.238-15.238 39.619-15.238 54.857 0l452.267 452.267z" />
<glyph unicode="&#xe909;" glyph-name="icon_chevron_left" horiz-adv-x="649" d="M28.853 421.747c-15.238 15.238-15.238 39.619 0 54.857l452.267 452.267c15.238 15.238 39.619 15.238 54.857 0l101.181-101.181c15.238-15.238 15.238-39.619 0-54.857l-323.658-323.658 323.658-323.658c15.238-15.238 15.238-39.619 0-54.857l-101.181-101.181c-15.238-15.238-39.619-15.238-54.857 0l-452.267 452.267z" />
<glyph unicode="&#xe90a;" glyph-name="icona_close" d="M1019.925 153.37c0 21.429-8.571 42.857-24 58.286l-252 252 252 252c15.429 15.429 24 36.857 24 58.286s-8.571 42.857-24 58.286l-116.572 116.572c-15.429 15.429-36.857 24-58.286 24s-42.857-8.571-58.286-24l-252-252-252 252c-15.429 15.429-36.857 24-58.286 24s-42.857-8.571-58.286-24l-116.572-116.572c-15.429-15.429-24-36.857-24-58.286s8.571-42.857 24-58.286l252-252-252-252c-15.429-15.429-24-36.857-24-58.286s8.571-42.857 24-58.286l116.572-116.572c15.429-15.429 36.857-24 58.286-24s42.857 8.571 58.286 24l252 252 252-252c15.429-15.429 36.857-24 58.286-24s42.857 8.571 58.286 24l116.572 116.572c15.429 15.429 24 36.857 24 58.286z" />
<glyph unicode="&#xe90b;" glyph-name="icona_contatti" d="M1004.651 181.098c0 4.848 0 9.697-2.078 14.545-4.848 14.545-38.788 29.784-52.641 36.71-39.481 22.165-79.654 43.636-118.442 66.494-18.009 11.082-40.173 31.862-61.645 31.862-42.251 0-103.896-125.368-141.299-125.368-18.701 0-42.944 17.316-59.567 27.013-126.061 69.957-213.334 157.23-283.29 283.29-9.697 16.623-27.013 40.866-27.013 59.567 0 37.403 125.368 99.048 125.368 141.299 0 21.472-20.779 43.636-31.862 61.645-22.857 38.788-44.329 78.961-66.494 118.442-6.926 13.853-22.165 47.792-36.71 52.641-4.848 2.078-9.697 2.078-14.545 2.078-24.935 0-73.42-11.082-96.277-21.472-33.939-14.545-56.104-53.333-73.42-84.502-22.165-40.866-35.325-82.424-35.325-128.831 0-64.416 26.32-122.598 47.792-181.472 15.238-42.251 33.939-83.117 57.489-121.212 72.727-117.749 214.719-259.741 332.468-332.468 38.095-23.55 78.961-42.251 121.212-57.489 58.875-21.472 117.056-47.792 181.472-47.792 46.407 0 87.965 13.16 128.831 35.325 31.169 17.316 69.957 39.481 84.502 73.42 10.39 22.857 21.472 71.342 21.472 96.277z" />
<glyph unicode="&#xe90c;" glyph-name="icona_estrazioni" horiz-adv-x="1427" d="M1415.29 585.462l-79.249 217.992c-6.498 18.147-19.954 32.96-37.396 41.167s-37.432 9.131-55.556 2.569l-30.718-11.419c-5.357-2.016-10.455-4.661-15.187-7.879-55.536 48.945-121.201 85.014-192.299 105.627-142.054 43.393-306.833 35.97-463.618-21.125s-287.763-157.242-368.953-282.167c-40.966-61.287-67.944-130.837-79.021-203.718-5.102-0.684-10.117-1.909-14.959-3.654l-30.718-11.419c-37.432-13.723-56.765-55.091-43.279-92.609l79.363-217.992c6.54-18.075 20.009-32.8 37.43-40.921s37.36-8.97 55.408-2.357l30.718 11.419c4.796 1.794 9.39 4.091 13.703 6.851 55.358-48.775 120.778-84.761 191.613-105.399 62.674-18.78 127.785-28.17 193.212-27.863 92.364 0.204 183.986 16.511 270.748 48.189 248.709 90.554 419.083 286.507 447.402 486.456 5.881 0.542 11.672 1.808 17.243 3.768l30.718 11.419c18.112 6.565 32.867 20.068 41.008 37.529s8.999 37.443 2.385 55.537zM1164.753 672.362l-946.762-344.63c20.735 37.917 48.389 71.613 81.533 99.347 83.702 74.681 207.029 143.996 347.485 195.153 132.12 48.075 262.64 74.224 371.693 74.224h19.869c43.196-0.082 85.995-8.254 126.182-24.094v0zM253.048 231.24l946.876 344.63c-20.733-37.918-48.387-71.615-81.533-99.347-83.702-74.681-207.029-144.11-347.485-195.153s-279.883-77.308-391.449-73.654c-43.237-0.131-86.115 7.848-126.41 23.523v0zM576.439 815.901c75.41 27.809 155.090 42.261 235.463 42.708 55.295 0.271 110.324-7.657 163.294-23.523 30.656-9.253 60.215-21.812 88.156-37.455-7.194 0-14.388 0.914-21.811 1.142-124.926 3.883-277.6-24.551-429.817-79.934s-300.438-138.971-397.044-230.895c11.404 30.298 26.11 59.249 43.85 86.329 69.086 106.312 182.021 192.070 317.909 241.515v0.114zM841.477 87.816c-135.888-49.445-277.6-56.296-398.757-19.413-30.852 9.214-60.604 21.774-88.727 37.455 7.194 0 14.388-0.914 21.811-1.142s15.073 0 22.838 0c120.472 0 264.011 28.205 407.207 79.934 153.359 55.725 301.808 139.314 397.843 231.466-50.358-136.116-182.592-262.983-362.215-328.301z" />
<glyph unicode="&#xe90d;" glyph-name="icon_chevron_top" horiz-adv-x="982" d="M518.328 764.952c-15.238 15.238-39.619 15.238-54.857 0l-452.267-452.267c-15.238-15.238-15.238-39.619 0-54.857l101.181-101.181c15.238-15.238 39.619-15.238 54.857 0l323.658 323.658 323.658-323.658c15.238-15.238 39.619-15.238 54.857 0l101.181 101.181c15.238 15.238 15.238 39.619 0 54.857l-452.267 452.267z" />
<glyph unicode="&#xe90e;" glyph-name="icona_homepage" horiz-adv-x="1274" d="M1090.347 395.339v-374.635c0-27.317-22.634-49.951-49.951-49.951h-299.708v299.708h-199.805v-299.708h-299.708c-27.317 0-49.951 22.634-49.951 49.951v374.635c0 1.561 0.78 3.122 0.78 4.683l448.781 369.952 448.781-369.952c0.78-1.561 0.78-3.122 0.78-4.683zM1264.396 449.193l-48.39-57.756c-3.902-4.683-10.146-7.805-16.39-8.585h-2.341c-6.244 0-11.707 1.561-16.39 5.463l-540.098 450.342-540.098-450.342c-5.463-3.902-11.707-6.244-18.732-5.463-6.244 0.78-12.488 3.902-16.39 8.585l-48.39 57.756c-8.585 10.146-7.024 26.537 3.122 35.122l561.171 467.513c32.781 27.317 85.854 27.317 118.634 0l190.439-159.22v152.195c0 14.049 10.927 24.976 24.976 24.976h149.854c14.049 0 24.976-10.927 24.976-24.976v-318.439l170.927-142.049c10.146-8.585 11.707-24.976 3.122-35.122z" />
<glyph unicode="&#xe90f;" glyph-name="icona_impronta" d="M520.85 972.85c-109.281 1.894-217.393-31.289-307.7-96.2-5.708-4.14-6.996-12.116-2.88-17.843s12.086-7.048 17.83-2.957c114.399 82.23 258.802 110.851 395.9 78.4 4.509-1.222 9.325 0.109 12.566 3.472s4.394 8.226 3.006 12.686c-1.388 4.46-5.095 7.811-9.672 8.742-36.076 8.538-72.621 13.070-109.050 13.7zM699.95 936.2c-6.189 0.052-11.529-4.332-12.684-10.413s2.207-12.117 7.984-14.337c201.229-81.861 323.755-287.078 300.3-503.050-0.583-4.593 1.36-9.144 5.081-11.899s8.64-3.287 12.864-1.39c4.224 1.897 7.094 5.927 7.505 10.539 24.676 227.22-104.391 443.374-316.1 529.5-1.564 0.676-3.247 1.033-4.95 1.050v0zM507.15 898.95c-9.851 0-19.691-0.556-29.55-1.35-4.704-0.164-8.938-2.895-11.027-7.112s-1.695-9.241 1.026-13.081c2.721-3.84 7.329-5.878 12.001-5.306 74.273 5.85 148.743-8.572 215.5-41.65 4.103-2.056 8.993-1.759 12.817 0.78s5.995 6.93 5.692 11.51c-0.303 4.58-3.035 8.647-7.159 10.66-62.036 30.74-130.354 46.308-199.3 45.55zM402 884.5c-1.151-0.013-2.294-0.181-3.4-0.5-191.442-51.295-324.653-224.902-324.65-423.1 0-54.085 4.422-78-1.1-126.75-3.205-23.404-13.429-45.291-29.35-62.75-4.705-5.24-4.299-13.295 0.909-18.036s13.265-4.39 18.041 0.786c19.446 21.322 31.911 48.057 35.8 76.65 0.001 0.1 0.001 0.2 0 0.3 5.832 51.315 1.25 77.092 1.25 129.8-0.003 186.734 125.33 350.070 305.7 398.4 6.24 1.603 10.317 7.594 9.518 13.987s-6.225 11.196-12.668 11.213h-0.050zM158.75 826.8c-3.322-0.092-6.478-1.473-8.8-3.85-118.282-118.282-171.321-286.955-142.050-451.65 0.733-4.568 3.875-8.385 8.217-9.984s9.209-0.729 12.729 2.273c3.52 3.002 5.147 7.671 4.254 12.211-27.812 156.485 22.566 316.663 134.95 429.050 3.767 3.683 4.893 9.297 2.838 14.148s-6.872 7.947-12.138 7.802zM509.25 825.050v-0.050c-9.759 0-19.491-0.48-29.15-1.35-115.889-10.235-222.871-75.813-283.4-180.65-2.508-3.968-2.643-8.991-0.351-13.088s6.642-6.611 11.336-6.551c4.694 0.060 8.979 2.685 11.165 6.839 75.085 130.048 226.736 195.040 372.7 159.75 145.964-35.287 251.12-162.365 258.5-312.35 0.211-4.588 2.862-8.713 6.948-10.811s8.983-1.85 12.835 0.652c3.852 2.502 6.072 6.873 5.817 11.46-7.933 161.213-121.21 298.068-278.1 336-29.417 7.112-59.029 10.378-88.3 10.15zM766.2 814.2c-5.446-0.222-10.155-3.868-11.733-9.086s0.322-10.862 4.733-14.064c68.529-51.318 119.41-122.674 145.55-204.2 1.21-4.573 4.843-8.106 9.448-9.188s9.431 0.464 12.551 4.020c3.119 3.556 4.024 8.543 2.351 12.968-27.763 86.582-81.769 162.403-154.55 216.9-2.385 1.838-5.342 2.776-8.35 2.65v0zM512 751.050c-87.094-0.003-169.606-39.152-224.7-106.6-55.096-67.451-76.982-156.112-59.6-241.45 0.882-4.512 4.116-8.205 8.472-9.676s9.166-0.493 12.603 2.561c3.437 3.054 4.973 7.716 4.024 12.215-15.854 77.827 4.105 158.638 54.35 220.15 50.243 61.512 125.426 97.197 204.85 97.2 4.616-0.065 8.91 2.36 11.237 6.347s2.327 8.918 0 12.906c-2.327 3.987-6.621 6.412-11.237 6.347zM596.050 738.15l0.050-0.050c-0.433 0.022-0.867 0.022-1.3 0-6.177-0.441-11.152-5.24-11.816-11.397s3.175-11.906 9.116-13.653c109.868-34.916 184.4-136.821 184.4-252.1-0.001-0.083-0.001-0.167 0-0.25 1.434-68.454 1.179-139.696-5.7-201.4-0.7-6.98 4.345-13.223 11.316-14.004s13.273 4.192 14.134 11.154c7.091 63.7 7.246 135.747 5.8 204.55-0.020 126.308-81.871 238.191-202.25 276.45-1.208 0.419-2.472 0.655-3.75 0.7v0zM499.6 676.75c-28.017-1.613-55.884-8.704-81.95-21.35-4.156-1.969-6.936-6.016-7.284-10.601s1.79-9.005 5.601-11.579c3.811-2.574 8.709-2.906 12.833-0.87 61.312 29.747 133.806 24.509 190.2-13.75 3.786-2.641 8.701-3.039 12.862-1.041s6.925 6.081 7.234 10.687c0.308 4.606-1.887 9.021-5.746 11.555-31.967 21.686-68.499 34.007-105.75 36.7-9.313 0.666-18.661 0.788-28 0.25zM367.95 617.65c-3.329-0.106-6.486-1.505-8.8-3.9-40.538-40.538-63.35-95.521-63.35-152.85v-84.85c0-108.419-44.837-208.73-119.65-282.1-3.565-3.128-5.109-7.971-4.011-12.586s4.657-8.243 9.25-9.43c4.592-1.187 9.464 0.262 12.661 3.766 79.498 77.962 127.35 184.866 127.35 300.35v84.85c0 50.55 20.107 99.005 55.85 134.75 3.805 3.677 4.955 9.316 2.895 14.189s-6.906 7.977-12.195 7.811v0zM512 603c-1.626 0.004-3.238-0.301-4.75-0.9-35.61-1.254-69.683-15.175-94.95-40.55-26.445-26.55-41.3-62.526-41.3-100.050l-0.4-55.8c-0.092-4.604 2.296-8.902 6.253-11.257s8.874-2.403 12.876-0.126c4.002 2.277 6.473 6.528 6.471 11.133l0.4 55.85c0 30.771 12.192 60.253 33.85 82 21.647 21.737 50.961 33.935 81.55 33.95 64.538 0 116.55-52.057 116.55-116.6v-37c0-67.453-6.98-134.688-20.85-200.7-1.010-4.5 0.478-9.195 3.895-12.292s8.236-4.116 12.615-2.669c4.379 1.447 7.641 5.137 8.54 9.661 14.231 67.743 21.4 136.778 21.4 206v37c0 76.713-61.374 138.59-137.45 141.25-1.493 0.61-3.087 0.932-4.7 0.95v0.15zM681.3 586.35c-4.753 0-9.114-2.634-11.327-6.84s-1.914-9.292 0.777-13.21c23.944-36.070 34.895-79.179 31.050-122.3-0.588-7.014 4.597-13.187 11.607-13.82s13.216 4.513 13.893 11.52c4.362 48.909-8.044 97.841-35.2 138.75-2.357 3.682-6.429 5.906-10.8 5.9zM172.050 564.8c-5.61-0.29-10.375-4.204-11.75-9.65-9.843-36.749-13.843-74.852-11.9-112.85 1.306-40.425-0.961-54.947-0.5-111.4-0.001-0.083-0.001-0.167 0-0.25 1.203-48.182-24.474-93.15-67.2-117.35-6.119-3.498-8.262-11.282-4.794-17.419s11.241-8.318 17.394-4.881c50.762 28.751 81.649 82.616 80.2 140.3-0.435 55.608 1.807 70.353 0.45 112.050 0.001 0.083 0.001 0.167 0 0.25-1.818 35.325 1.945 70.682 11.1 104.85 1.157 3.986 0.309 8.286-2.274 11.535s-6.582 5.044-10.726 4.815zM512 529.2c-37.55 0-68.25-30.75-68.25-68.3l-0.75-70.050c-3.072-69.094-15.739-137.405-37.65-203-1.734-4.405-0.896-9.408 2.181-13.007s7.888-5.206 12.509-4.178c4.622 1.028 8.299 4.522 9.56 9.085 22.661 67.85 35.773 138.485 38.95 209.95 0.003 0.167 0.003 0.333 0 0.5l0.75 70.65c0 23.716 18.934 42.703 42.65 42.7 23.716 0 42.65-18.984 42.65-42.7-0.065-4.616 2.36-8.91 6.347-11.237s8.918-2.327 12.906 0c3.987 2.327 6.412 6.621 6.347 11.237 0 37.55-30.7 68.303-68.25 68.3l0.050 0.050zM933.050 528.85v-0.15c-3.608-0.161-6.979-1.839-9.284-4.62s-3.327-6.405-2.816-9.98c2.048-15.657 3.212-31.412 3.45-47.2v-80.15c0-77.868-10.596-155.355-31.55-230.35-1.337-4.437-0.173-9.25 3.045-12.584s7.987-4.669 12.468-3.49c4.481 1.179 7.976 4.688 9.136 9.175 21.578 77.238 32.5 157.053 32.5 237.25v80.35c0.001 0.1 0.001 0.2 0 0.3-0.256 16.765-1.484 33.52-3.65 50.15-0.781 6.673-6.588 11.607-13.3 11.3v0zM862.7 417.65c-3.395-0.105-6.61-1.555-8.935-4.030s-3.572-5.774-3.465-9.17c2.022-115.837-16.001-231.164-53.3-340.85-1.523-4.345-0.597-9.173 2.425-12.646s7.677-5.056 12.19-4.147c4.514 0.909 8.192 4.171 9.634 8.543 38.252 112.484 56.731 230.758 54.65 349.55-0.012 3.456-1.422 6.761-3.908 9.162s-5.838 3.695-9.292 3.588zM563.15 400.050c-6.557-0.243-11.868-5.403-12.3-11.95-11.366-145.964-57.945-287.255-135.9-412.25-2.503-3.888-2.714-8.823-0.554-12.911s6.358-6.693 10.98-6.815c4.622-0.122 8.951 2.258 11.324 6.226 80.115 128.458 127.964 273.665 139.65 423.75 0.332 3.66-0.925 7.286-3.451 9.955s-6.077 4.124-9.749 3.995v0zM715.25 380.85c-7.069 0.027-12.822-5.681-12.85-12.75-2.56-133.996-32.421-266.084-87.75-388.15-2.132-4.199-1.785-9.23 0.902-13.098s7.281-5.948 11.96-5.415c4.679 0.532 8.688 3.591 10.438 7.963 56.768 125.235 87.431 260.723 90.050 398.2 0.121 3.463-1.166 6.828-3.569 9.325s-5.715 3.913-9.181 3.925zM233.45 344.15c-6.572-0.299-11.846-5.531-12.2-12.1-4.918-72.781-39.631-140.3-96-186.6-3.772-2.825-5.687-7.495-4.984-12.155s3.909-8.557 8.347-10.145c4.438-1.587 9.388-0.608 12.887 2.55 61.816 50.772 99.909 124.789 105.3 204.6 0.306 3.67-0.984 7.295-3.54 9.946s-6.13 4.074-9.81 3.904v0zM373.95 343.95l-0.050-0.050c-6.062-0.365-11.033-4.939-11.9-10.95-16.525-104.891-58.744-204.087-122.9-288.7-2.932-3.632-3.655-8.572-1.886-12.892s5.749-7.334 10.387-7.866c4.638-0.532 9.197 1.502 11.899 5.309 66.706 87.98 110.622 191.086 127.8 300.15 0.679 3.854-0.443 7.807-3.045 10.731s-6.398 4.496-10.305 4.269zM771.75 196.3c-6.075-0.111-11.235-4.477-12.35-10.45-12.045-60.268-30.349-119.129-54.6-175.6-2.044-4.239-1.597-9.257 1.163-13.069s7.389-5.801 12.054-5.181c4.665 0.62 8.613 3.749 10.283 8.149 24.957 58.104 43.807 118.689 56.2 180.7 0.808 3.815-0.168 7.791-2.65 10.799s-6.2 4.72-10.1 4.651zM601.45 159.55c-5.6-0.166-10.442-3.954-11.95-9.35-18.463-63.247-43.306-124.45-74.1-182.7-2.164-4.048-1.997-8.944 0.436-12.836s6.762-6.185 11.349-6.013c4.587 0.173 8.731 2.785 10.865 6.849 31.601 59.776 57.053 122.591 76 187.5 1.209 3.943 0.445 8.227-2.053 11.508s-6.424 5.158-10.547 5.042zM387.15 122.2c-4.667-0.418-8.733-3.352-10.6-7.65-17.441-38.241-38.071-74.938-61.7-109.7-2.769-3.774-3.256-8.758-1.272-12.998s6.124-7.058 10.795-7.35c4.672-0.292 9.13 1.989 11.627 5.948 24.438 35.955 45.812 73.943 63.85 113.5 1.852 3.936 1.578 8.543-0.726 12.232s-6.325 5.956-10.674 6.018c-0.433 0.022-0.867 0.022-1.3 0z" />
<glyph unicode="&#xe910;" glyph-name="icona_non_salvata" horiz-adv-x="1069" d="M726.317 342.317l197.665 191.851-272.597 40.050-122.087 246.758-122.087-246.758-272.597-40.050 197.665-191.851-47.155-271.951 244.174 128.547 243.528-128.547-46.509 271.951zM1066.74 572.926c0-11.627-8.398-22.609-16.795-31.006l-234.485-228.671 55.553-322.982c0.646-4.522 0.646-8.398 0.646-12.919 0-17.441-7.752-32.298-26.485-32.298-9.043 0-18.087 3.23-25.839 7.752l-290.038 152.447-290.038-152.447c-8.398-4.522-16.795-7.752-25.839-7.752-18.733 0-27.13 15.503-27.13 32.298 0 4.522 0.646 8.398 1.292 12.919l55.553 322.982-235.131 228.671c-7.752 8.398-16.149 19.379-16.149 31.006 0 19.379 20.025 27.13 36.174 29.714l324.274 47.155 145.342 293.913c5.814 12.273 16.795 26.485 31.652 26.485s25.839-14.211 31.652-26.485l145.342-293.913 324.274-47.155c15.503-2.584 36.174-10.335 36.174-29.714z" />
<glyph unicode="&#xe911;" glyph-name="icona_preferenze" d="M676.343 468.721c0 92.082-75.102 167.184-167.184 167.184s-167.184-75.102-167.184-167.184c0-92.082 75.102-167.184 167.184-167.184s167.184 75.102 167.184 167.184zM1010.71 539.905v-144.98c0-9.796-7.837-21.551-18.286-23.51l-120.816-18.286c-7.184-20.898-15.020-40.49-25.469-59.429 22.204-32 45.714-60.735 69.878-90.123 3.918-4.571 6.531-10.449 6.531-16.327s-1.959-10.449-5.878-15.020c-15.673-20.898-103.837-116.898-126.041-116.898-5.878 0-11.755 2.612-16.98 5.878l-90.123 70.531c-18.939-9.796-39.184-18.286-59.429-24.816-4.571-39.837-8.49-82.286-18.939-121.47-2.612-10.449-11.755-18.286-23.51-18.286h-144.98c-11.755 0-22.204 8.49-23.51 19.592l-18.286 120.163c-20.245 6.531-39.837 14.367-58.776 24.163l-92.082-69.878c-4.571-3.918-10.449-5.878-16.327-5.878s-11.755 2.612-16.327 7.184c-34.612 31.347-80.327 71.837-107.755 109.714-3.265 4.571-4.571 9.796-4.571 15.020 0 5.878 1.959 10.449 5.224 15.020 22.204 30.041 46.367 58.776 68.572 89.469-11.102 20.898-20.245 42.449-26.776 64.653l-119.51 17.633c-11.102 1.959-18.939 12.408-18.939 23.51v144.98c0 9.796 7.837 21.551 17.633 23.51l121.47 18.286c6.531 20.898 15.020 40.49 25.469 60.082-22.204 31.347-45.714 60.735-69.878 90.123-3.918 4.571-6.531 9.796-6.531 15.673s2.612 10.449 5.878 15.020c15.673 21.551 103.837 116.898 126.041 116.898 5.878 0 11.755-2.612 16.98-6.531l90.123-69.878c18.939 9.796 39.184 18.286 59.429 24.816 4.571 39.837 8.49 82.286 18.939 121.47 2.612 10.449 11.755 18.286 23.51 18.286h144.98c11.755 0 22.204-8.49 23.51-19.592l18.286-120.163c20.245-6.531 39.837-14.367 58.776-24.163l92.735 69.878c3.918 3.918 9.796 5.878 15.673 5.878s11.755-2.612 16.327-6.531c34.612-32 80.327-72.49 107.755-111.021 3.265-3.918 4.571-9.143 4.571-14.367 0-5.878-1.959-10.449-5.224-15.020-22.204-30.041-46.367-58.776-68.572-89.469 11.102-20.898 20.245-42.449 26.776-64l119.51-18.286c11.102-1.959 18.939-12.408 18.939-23.51z" />
<glyph unicode="&#xe912;" glyph-name="icona_qr_code" horiz-adv-x="1042" d="M8.618 972.8h341.327v-342.157h-341.327v342.157zM122.388 859.101h113.788v-113.876h-113.788v113.876zM691.291 972.8h341.327v-342.157h-341.327v342.157zM805.061 859.101h113.788v-113.876h-113.788v113.876zM8.618 290.074h341.327v-341.274h-341.327v341.274zM122.388 176.375h113.788v-113.876h-113.788v113.876zM691.291 290.074h341.327v-341.274h-341.327v341.274zM805.061 176.375h113.788v-113.876h-113.788v113.876zM349.946 517.65h113.788v-227.575h-113.788v227.575zM463.733 290.074h113.77v-227.575h-113.77v227.575zM577.503 403.068h113.788v-112.993h-113.788v112.993zM122.388 517.65h113.788v-114.582h-113.788v114.582zM463.733 972.8h113.77v-113.699h-113.77v113.699zM463.733 745.225h113.77v-342.157h-113.77v342.157zM577.503 630.643h113.788v-112.993h-113.788v112.993zM691.291 517.65h227.558v-114.582h-227.558v114.582z" />
<glyph unicode="&#xe913;" glyph-name="icona_salvata" horiz-adv-x="1069" d="M1082.514 572.926c0 19.379-20.671 27.13-36.174 29.714l-324.274 47.155-145.342 293.913c-5.814 12.273-16.795 26.485-31.652 26.485s-25.839-14.211-31.652-26.485l-145.342-293.913-324.274-47.155c-16.149-2.584-36.174-10.335-36.174-29.714 0-11.627 8.398-22.609 16.149-31.006l235.131-228.671-55.553-322.982c-0.646-4.522-1.292-8.398-1.292-12.919 0-16.795 8.398-32.298 27.13-32.298 9.043 0 17.441 3.23 25.839 7.752l290.038 152.447 290.038-152.447c7.752-4.522 16.795-7.752 25.839-7.752 18.733 0 26.485 15.503 26.485 32.298 0 4.522 0 8.398-0.646 12.919l-55.553 322.982 234.485 228.671c8.398 8.398 16.795 19.379 16.795 31.006z" />
<glyph unicode="&#xe914;" glyph-name="icona_schedine" horiz-adv-x="1306" d="M289.792 105.191c0 75.62-61.352 136.973-136.973 136.973s-136.973-61.352-136.973-136.973c0-75.62 61.352-136.973 136.973-136.973s136.973 61.352 136.973 136.973zM289.792 470.452c0 75.62-61.352 136.973-136.973 136.973s-136.973-61.352-136.973-136.973c0-75.62 61.352-136.973 136.973-136.973s136.973 61.352 136.973 136.973zM1294.26 173.677c0 12.128-10.701 22.829-22.829 22.829h-867.495c-12.128 0-22.829-10.701-22.829-22.829v-136.973c0-12.128 10.701-22.829 22.829-22.829h867.495c12.128 0 22.829 10.701 22.829 22.829v136.973zM289.792 835.713c0 75.62-61.352 136.973-136.973 136.973s-136.973-61.352-136.973-136.973c0-75.62 61.352-136.973 136.973-136.973s136.973 61.352 136.973 136.973zM1294.26 538.938c0 12.128-10.701 22.829-22.829 22.829h-867.495c-12.128 0-22.829-10.701-22.829-22.829v-136.973c0-12.128 10.701-22.829 22.829-22.829h867.495c12.128 0 22.829 10.701 22.829 22.829v136.973zM1294.26 904.199c0 12.128-10.701 22.829-22.829 22.829h-867.495c-12.128 0-22.829-10.701-22.829-22.829v-136.973c0-12.128 10.701-22.829 22.829-22.829h867.495c12.128 0 22.829 10.701 22.829 22.829v136.973z" />
<glyph unicode="&#xe915;" glyph-name="icona_shake" horiz-adv-x="975" d="M552.619 780.922h-129.999c-17.841 0-32.305 14.463-32.305 32.305s14.463 32.305 32.305 32.305h129.999c11.541-0.013 22.199-6.182 27.958-16.184s5.745-22.316-0.037-32.305c-5.782-9.989-16.454-16.134-27.995-16.121h0.073zM942.714-61.684c-17.821 0.012-32.313 14.363-32.5 32.183 0 0-1.341 133.364-1.341 263.070 0 68.267-71.582 143.604-128.683 190.903v-356.45c0-17.949-14.551-32.5-32.5-32.5s-32.5 14.551-32.5 32.5v421.303c0.004 11.927 6.555 22.889 17.056 28.542s23.259 5.085 33.217-1.479c8.509-5.608 208.384-137.265 208.384-282.819 0-129.463 1.365-262.339 1.365-262.583 0.068-17.891-14.317-32.483-32.207-32.67h-0.293zM195.048 316.145v562.057c0.003 0.482-55.288-13.359-55.288-13.359l5.864 1.576-16.047 58.047 72.346 19.564 4.458-21.41c4.592 8.553 10.506 16.431 17.605 23.317 18.336 17.786 43.047 27.465 68.585 26.863h390.095c25.529 0.616 50.232-9.063 68.548-26.856 8.322-8.084 15.007-17.535 19.837-27.837l7.846 24.461 66.817-18.083-15.475-58.176-50.217 13.468c0.011-0.525 0.021-390.451 0.021-390.451 0-17.949-14.551-32.5-32.5-32.5s-32.5 14.551-32.5 32.5v388.876c-0.067 17.909-14.59 32.4-32.5 32.427h-389.973c-17.91-0.027-32.433-14.517-32.5-32.427v-777.752c-0.007-8.615 3.418-16.878 9.516-22.962s14.369-9.49 22.984-9.464h65.024c11.585-0.004 22.288-6.189 28.076-16.224s5.784-22.396-0.012-32.427c-5.796-10.031-16.503-16.207-28.088-16.203h-46.789c-23.437-8.607-49.025-5.191-70.526 7.298s-37.145 33.023-43.478 57.068l-79.729 299.16 60.151 16.33-16.213 60.709-60.172-16.091 4.553-17.118-20.743 77.833 60.149 16.329-16.238 60.952-60.148-16.335 3.115-11.711-22.894 85.904 3.542-13.241 60.172 16.091-16.238 60.952-60.13-16.324-16.242 60.944 60.159 16.088-16.238 60.952-60.103-16.323-0.776 2.913c-6.269 23.781-2.75 49.081 9.772 70.248s33.001 36.435 56.862 42.392l31.607 8.547-31.388-8.558 16.297-57.752c-17.618-4.924-27.402-22.102-22.928-38.786l132.072-495.497zM195.048 316.047l-1.609 6.025-60.172-16.091 16.213-60.952 45.568 12.371v58.648zM195.048 192.164l-29.33-7.844 16.213-60.952 13.117 3.508v65.288zM898.057 910.319l7.866-2.129c23.862-5.957 44.343-21.224 56.868-42.39s16.051-46.466 9.789-70.25l-65.658-246.248-60.148 16.329 16.192 60.714 60.169-16.091 16.213 60.709-60.128 16.33 16.194 60.714 60.172-16.091 16.213 60.709-60.133 16.331 0.716 2.686c4.475 16.684-5.31 33.861-21.943 38.522l-0.037 0.010 15.494 58.017-7.841 2.129zM835.66 523.946v0zM552.619-61.684c-10.63-0.016-20.595 5.176-26.673 13.897l-104.838 149.455c-43.294 45.076-42.040 116.66 2.807 160.192s116.436 42.656 160.204-1.959l252.026-266.971c7.927-8.462 10.736-20.51 7.371-31.606s-12.394-19.553-23.686-22.187c-11.292-2.633-23.131 0.957-31.057 9.419l-251.319 266.24c-19.417 17.311-49.003 16.332-67.233-2.224s-18.685-48.155-1.034-67.262c1.413-1.29 2.643-2.766 3.657-4.389l106.203-151.65c4.932-7.042 6.856-15.759 5.347-24.224s-6.329-15.978-13.392-20.881c-5.408-3.757-11.823-5.796-18.408-5.851h0.024z" />
<glyph unicode="&#xe916;" glyph-name="Pin_lotto" horiz-adv-x="815" d="M799.694 582.426v0c0.091-91.157-32.234-179.377-91.199-248.895l-305.674-384.731-288.371 363.833-17.784 20.898h0.376c-59.010 69.5-91.38 157.722-91.324 248.895 4.152 216.281 180.668 389.44 396.988 389.44s392.836-173.16 396.988-389.44zM421.294 372.402c67.732 26.709 118.123 84.85 134.938 155.69 7.772 32.309 2.334 66.383-15.109 94.668-16.737 25.726-43.333 43.419-73.528 48.916s-61.32-1.69-86.049-19.868c-22.852-15.223-38.854-38.769-44.596-65.62-1.405-9.8-1.101-19.77 0.899-29.466-0.414 5.3-0.203 10.631 0.627 15.882 10.119 43.060 51.446 71.264 95.232 64.993 21.878-3.272 41.231-15.945 52.976-34.691 15.243-24.867 18.371-55.309 8.505-82.756-11.879-38.915-39.458-71.107-76.089-88.816-37.141-17.829-79.987-19.568-118.45-4.807-54.69 21.107-101.334 83.801-82.275 176.379 16.927 82.756 102.546 178.26 216.503 194.978 20.118 2.791 40.477 3.421 60.729 1.881-2.090 0.627-4.472 1.045-6.771 1.463-18.153 3.892-36.667 5.854-55.233 5.851-114.598-2.295-216.060-74.638-255.582-182.23-52.893-131.657 18.432-220.056 63.551-248.477 45.787-28.63 116.318-30.302 179.722-3.971v0zM563.212 747.311c-45.787 28.63-116.339 30.302-179.722 3.971-67.742-26.701-118.143-84.844-134.959-155.69-7.775-32.311-2.329-66.39 15.13-94.668 16.749-25.723 43.352-43.414 73.552-48.909s61.329 1.688 86.067 19.861c22.849 15.218 38.84 38.768 44.554 65.62 1.418 9.801 1.1 19.775-0.94 29.466 0.414-5.369 0.21-10.768-0.606-16.091-10.643-42.665-51.617-70.545-95.211-64.784-21.909 3.19-41.294 15.884-52.976 34.691-15.257 24.86-18.401 55.302-8.547 82.756 11.93 38.913 39.532 71.097 76.173 88.816 37.119 17.829 79.945 19.567 118.387 4.807 54.648-21.107 101.313-83.801 82.317-176.588-16.99-82.547-102.609-178.051-216.524-194.769-20.125-2.79-40.491-3.42-60.75-1.881 2.090-0.627 4.409-1.045 6.687-1.463 130.215-27.376 258.132 45.14 310.878 176.379 52.976 131.657-18.39 220.056-63.509 248.477z" />
<glyph unicode="&#xe917;" glyph-name="Pin" horiz-adv-x="815" d="M799.694 582.426c-4.152 216.281-180.668 389.44-396.988 389.44s-392.836-173.16-396.988-389.44c-0.056-91.173 32.314-179.394 91.324-248.895h-0.376l17.784-20.898 288.371-363.833 305.674 384.731c58.965 69.518 91.29 157.738 91.199 248.895v0z" />
<glyph unicode="&#xe918;" glyph-name="regolamenti" horiz-adv-x="886" d="M824.434 700.85c5.56-5.56 10.564-12.232 15.568-20.015h-262.425v262.425c7.784-5.004 14.456-10.008 20.015-15.568l226.842-226.842zM559.785 609.668h302.456v-587.12c0-29.467-23.907-53.375-53.375-53.375h-747.244c-29.467 0-53.375 23.907-53.375 53.375v889.576c0 29.467 23.907 53.375 53.375 53.375h444.788v-302.456c0-29.467 23.907-53.375 53.375-53.375zM648.742 200.463v35.583c0 10.008-7.784 17.792-17.792 17.792h-391.414c-10.008 0-17.792-7.784-17.792-17.792v-35.583c0-10.008 7.784-17.792 17.792-17.792h391.414c10.008 0 17.792 7.784 17.792 17.792zM648.742 342.795v35.583c0 10.008-7.784 17.792-17.792 17.792h-391.414c-10.008 0-17.792-7.784-17.792-17.792v-35.583c0-10.008 7.784-17.792 17.792-17.792h391.414c10.008 0 17.792 7.784 17.792 17.792zM648.742 485.127v35.583c0 10.008-7.784 17.792-17.792 17.792h-391.414c-10.008 0-17.792-7.784-17.792-17.792v-35.583c0-10.008 7.784-17.792 17.792-17.792h391.414c10.008 0 17.792 7.784 17.792 17.792z" />
<glyph unicode="&#xe919;" glyph-name="icona_notifica" horiz-adv-x="931" d="M474.321 15.293c0 4.987-3.879 8.866-8.866 8.866-43.775 0-79.792 36.017-79.792 79.792 0 4.987-3.879 8.866-8.866 8.866s-8.866-3.879-8.866-8.866c0-53.749 43.775-97.524 97.524-97.524 4.987 0 8.866 3.879 8.866 8.866zM926.477 174.878c0-38.788-32.139-70.926-70.926-70.926h-248.243c0-78.13-63.723-141.853-141.853-141.853s-141.853 63.723-141.853 141.853h-248.243c-38.788 0-70.926 32.139-70.926 70.926 82.009 69.264 177.316 193.386 177.316 461.022 0 106.39 88.104 222.754 234.944 244.364-2.771 6.649-4.433 13.853-4.433 21.61 0 29.368 23.827 53.195 53.195 53.195s53.195-23.827 53.195-53.195c0-7.758-1.662-14.961-4.433-21.61 146.84-21.61 234.944-137.974 234.944-244.364 0-267.637 95.307-391.758 177.316-461.022z" />
<glyph unicode="&#xe91a;" glyph-name="icona_profilo" horiz-adv-x="993" d="M496.485 955.069c274.286 0 496.485-222.199 496.485-496.485 0-272.624-221.091-496.485-496.485-496.485-274.84 0-496.485 223.308-496.485 496.485 0 274.286 222.199 496.485 496.485 496.485zM839.482 206.462c51.533 70.926 82.563 157.922 82.563 252.122 0 234.39-191.169 425.559-425.559 425.559s-425.559-191.169-425.559-425.559c0-94.199 31.030-181.195 82.563-252.122 19.948 99.186 68.156 181.195 169.559 181.195 44.883-43.775 105.836-70.926 173.437-70.926s128.554 27.152 173.437 70.926c101.403 0 149.611-82.009 169.559-181.195zM709.265 564.974c0-117.472-95.307-212.779-212.779-212.779s-212.779 95.307-212.779 212.779c0 117.472 95.307 212.779 212.779 212.779s212.779-95.307 212.779-212.779z" />
<glyph unicode="&#xe91b;" glyph-name="icona_store_locator" horiz-adv-x="989" d="M754.76 377.569h-68.729c-22.069 0-40.355 18.286-40.355 40.355v80.709c0 22.069 18.286 40.355 40.355 40.355h68.729c-27.113 90.798-98.995 162.68-189.793 189.793v-68.729c0-22.069-18.286-40.355-40.355-40.355h-80.709c-22.069 0-40.355 18.286-40.355 40.355v68.729c-90.798-27.113-162.68-98.995-189.793-189.793h68.729c22.069 0 40.355-18.286 40.355-40.355v-80.709c0-22.069-18.286-40.355-40.355-40.355h-68.729c27.113-90.798 98.995-162.68 189.793-189.793v68.729c0 22.069 18.286 40.355 40.355 40.355h80.709c22.069 0 40.355-18.286 40.355-40.355v-68.729c90.798 27.113 162.68 98.995 189.793 189.793zM968.513 498.633v-80.709c0-22.069-18.286-40.355-40.355-40.355h-90.168c-30.897-135.567-137.458-242.128-273.025-273.025v-90.168c0-22.069-18.286-40.355-40.355-40.355h-80.709c-22.069 0-40.355 18.286-40.355 40.355v90.168c-135.567 30.897-242.128 137.458-273.025 273.025h-90.168c-22.069 0-40.355 18.286-40.355 40.355v80.709c0 22.069 18.286 40.355 40.355 40.355h90.168c30.897 135.567 137.458 242.128 273.025 273.025v90.168c0 22.069 18.286 40.355 40.355 40.355h80.709c22.069 0 40.355-18.286 40.355-40.355v-90.168c135.567-30.897 242.128-137.458 273.025-273.025h90.168c22.069 0 40.355-18.286 40.355-40.355z" />
<glyph unicode="&#xe91c;" glyph-name="icona_suono" horiz-adv-x="1138" d="M520.128 826.515c0 23.704-19.64 43.344-43.344 43.344-11.513 0-22.349-4.741-30.476-12.868l-225.524-225.524h-177.439c-23.704 0-43.344-19.64-43.344-43.344v-260.064c0-23.704 19.64-43.344 43.344-43.344h177.439l225.524-225.524c8.127-8.127 18.963-12.868 30.476-12.868 23.704 0 43.344 19.64 43.344 43.344v736.847zM780.191 458.092c0-67.725-41.312-133.418-104.974-159.154-5.418-2.709-11.513-3.386-16.931-3.386-23.704 0-43.344 18.963-43.344 43.344 0 51.471 78.561 37.249 78.561 119.196s-78.561 67.725-78.561 119.196c0 24.381 19.64 43.344 43.344 43.344 5.418 0 11.513-0.677 16.931-3.386 63.661-25.058 104.974-91.429 104.974-159.154zM953.567 458.092c0-137.482-82.624-265.482-209.947-318.985-5.418-2.032-11.513-3.386-16.931-3.386-24.381 0-44.021 19.64-44.021 43.344 0 18.963 10.836 31.831 26.413 39.958 18.286 9.481 35.217 17.608 51.471 29.799 67.048 48.762 106.328 126.646 106.328 209.27s-39.28 160.508-106.328 209.27c-16.254 12.19-33.185 20.317-51.471 29.799-15.577 8.127-26.413 20.995-26.413 39.958 0 23.704 19.64 43.344 43.344 43.344 6.095 0 12.19-1.354 17.608-3.386 127.323-53.503 209.947-181.503 209.947-318.985zM1126.943 458.092c0-207.916-123.937-396.191-314.921-478.138-5.418-2.032-11.513-3.386-17.608-3.386-23.704 0-43.344 19.64-43.344 43.344 0 19.64 10.159 30.476 26.413 39.958 9.481 5.418 20.317 8.804 30.476 14.222 18.963 10.159 37.926 21.672 55.534 34.54 111.069 81.947 176.762 211.302 176.762 349.461s-65.693 267.514-176.762 349.461c-17.608 12.868-36.571 24.381-55.534 34.54-10.159 5.418-20.995 8.804-30.476 14.222-16.254 9.481-26.413 20.317-26.413 39.958 0 23.704 19.64 43.344 43.344 43.344 6.095 0 12.19-1.354 17.608-3.386 190.984-81.947 314.921-270.223 314.921-478.138z" />
<glyph unicode="&#xe91d;" glyph-name="cancel" horiz-adv-x="1536" d="M424.32-51.2h1079.68c17.673 0 32 14.327 32 32v960c0 17.673-14.327 32-32 32h-1079.68c-0.073 0.001-0.159 0.001-0.246 0.001-9.963 0-18.854-4.595-24.667-11.781l-392.687-480.060c-4.485-5.441-7.205-12.483-7.205-20.16s2.72-14.719 7.248-20.215l392.596-479.945c5.995-7.2 14.937-11.769 24.948-11.84zM1472 12.8h-1032.64l-366.4 448 366.4 448h1032.64v-896zM671.673 236.8c-8.734 0.038-16.642 3.575-22.4 9.287-5.918 5.756-9.595 13.805-9.595 22.713s3.677 16.957 9.602 22.72l384 384c5.815 5.815 13.847 9.411 22.72 9.411 17.745 0 32.131-14.386 32.131-32.131 0-8.873-3.596-16.905-9.411-22.72l-384.313-383.993c-5.873-5.718-13.884-9.251-22.727-9.287zM1056 236.8c8.833 0.099 16.825 3.618 22.731 9.291 5.773 5.818 9.348 13.846 9.348 22.709s-3.575 16.892-9.361 22.722l-384.318 383.998c-5.786 5.746-13.758 9.298-22.56 9.298-17.683 0-32.018-14.335-32.018-32.018 0-8.881 3.616-16.918 9.456-22.718l384.002-384.002c5.866-5.711 13.877-9.244 22.713-9.28z" />
</font>
</defs>
</svg>
